#N canvas 352 262 450 300 10;
#X obj 73 106 until;
#X obj 73 79 t f b;
#X msg 113 106 0;
#X obj 73 133 i;
#X obj 104 133 + 1;
#X obj 73 161 outlet;
#X obj 73 46 inlet n;
#X obj 124 65 inlet stop;
#X connect 0 0 3 0;
#X connect 1 0 0 0;
#X connect 1 1 2 0;
#X connect 2 0 3 1;
#X connect 3 0 4 0;
#X connect 3 0 5 0;
#X connect 4 0 3 1;
#X connect 6 0 1 0;
#X connect 7 0 0 1;
