#N canvas 333 283 470 517 10;
#N canvas 674 200 450 300 wrap 0;
#X obj 98 63 inlet;
#X obj 102 215 outlet;
#X obj 102 162 sin;
#X obj 95 97 / 4;
#X obj 90 123 * 6.28319;
#X connect 0 0 3 0;
#X connect 2 0 1 0;
#X connect 3 0 4 0;
#X connect 4 0 2 0;
#X restore 71 294 pd wrap;
#X obj 71 276 clip 0 2;
#X obj 156 276 clip 0 2;
#X obj 242 276 clip 0 2;
#X obj 71 84 t f f;
#X obj 71 136 -;
#X obj 98 102 div 3;
#X obj 98 120 * 3;
#X obj 71 205 t f f;
#X obj 71 257 -;
#X obj 71 187 + 1;
#X obj 156 257 + 0;
#X obj 242 257 - 1;
#X obj 98 223 div 3;
#X obj 98 241 * 3;
#X obj 71 30 inlet mix;
#X obj 71 48 clip 0 1;
#X obj 71 66 * 3;
#X obj 71 365 outlet rgb;
#X obj 71 347 pack 0 0 0, f 29;
#X obj 71 158 t f f f, f 29;
#N canvas 674 200 450 300 wrap 0;
#X obj 98 63 inlet;
#X obj 102 215 outlet;
#X obj 102 162 sin;
#X obj 95 97 / 4;
#X obj 90 123 * 6.28319;
#X connect 0 0 3 0;
#X connect 2 0 1 0;
#X connect 3 0 4 0;
#X connect 4 0 2 0;
#X restore 156 294 pd wrap;
#N canvas 674 200 450 300 wrap 0;
#X obj 98 63 inlet;
#X obj 102 215 outlet;
#X obj 102 162 sin;
#X obj 95 97 / 4;
#X obj 90 123 * 6.28319;
#X connect 0 0 3 0;
#X connect 2 0 1 0;
#X connect 3 0 4 0;
#X connect 4 0 2 0;
#X restore 242 294 pd wrap;
#X connect 0 0 19 0;
#X connect 1 0 0 0;
#X connect 2 0 21 0;
#X connect 3 0 22 0;
#X connect 4 0 5 0;
#X connect 4 1 6 0;
#X connect 5 0 20 0;
#X connect 6 0 7 0;
#X connect 7 0 5 1;
#X connect 8 0 9 0;
#X connect 8 1 13 0;
#X connect 9 0 1 0;
#X connect 10 0 8 0;
#X connect 11 0 2 0;
#X connect 12 0 3 0;
#X connect 13 0 14 0;
#X connect 14 0 9 1;
#X connect 15 0 16 0;
#X connect 16 0 17 0;
#X connect 17 0 4 0;
#X connect 19 0 18 0;
#X connect 20 0 10 0;
#X connect 20 1 11 0;
#X connect 20 2 12 0;
#X connect 21 0 19 1;
#X connect 22 0 19 2;
