#N canvas 526 45 761 539 10;
#N canvas 213 45 640 574 this 0;
#X obj 244 103 bng 15 250 50 0 empty empty doit 17 7 0 10 -262144 -258113
-1;
#X obj 115 251 v \$0_v_capability;
#X obj 145 331 v \$0_v_to_y;
#X obj 144 300 v \$0_v_to_x;
#X obj 245 142 vradio 15 1 0 5 \$0-s-0 \$0-r-0 capability 0 -8 0 10
-228856 -1 -1 2;
#X text 259 203 _32;
#X text 259 188 _24;
#X text 259 173 _16;
#X text 259 158 _12;
#X text 259 143 _8;
#N canvas 0 50 450 300 (subpatch) 0;
#X obj 184 75 inlet;
#X obj 184 99 sel 0 1 2 3 4;
#X msg 184 125 8;
#X msg 199 145 12;
#X msg 214 165 16;
#X msg 229 184 24;
#X msg 244 203 32;
#X obj 184 219 outlet;
#X connect 0 0 1 0;
#X connect 1 0 2 0;
#X connect 1 1 3 0;
#X connect 1 2 4 0;
#X connect 1 3 5 0;
#X connect 1 4 6 0;
#X connect 2 0 7 0;
#X connect 3 0 7 0;
#X connect 4 0 7 0;
#X connect 5 0 7 0;
#X connect 6 0 7 0;
#X restore 115 233 pd;
#X obj 413 333 v \$0_v_from_y;
#X obj 411 298 v \$0_v_from_x;
#X obj 461 81 v \$0_v_size_x;
#X obj 558 81 v \$0_v_size_y;
#X obj 318 142 vradio 15 1 0 5 \$0-s-1 \$0-r-1 quality 0 -8 0 10 -228856
-1 -1 0;
#N canvas 0 50 450 300 (subpatch) 0;
#X obj 184 75 inlet;
#X obj 184 219 outlet;
#X obj 184 99 sel 0 1 2;
#X msg 184 125 512;
#X msg 199 145 1024;
#X msg 214 165 2048;
#X connect 0 0 2 0;
#X connect 2 0 3 0;
#X connect 2 1 4 0;
#X connect 2 2 5 0;
#X connect 3 0 1 0;
#X connect 4 0 1 0;
#X connect 5 0 1 0;
#X restore 409 229 pd;
#X text 332 143 _512;
#X text 332 158 _1024;
#X text 332 173 _2048;
#X obj 409 247 v \$0_v_quality;
#X text 332 188 _4096;
#X text 332 203 _8192;
#X obj 179 396 v \$0_v_to_frequency;
#X obj 407 396 v \$0_v_from_frequency;
#X obj 244 262 nbx 5 14 22 138 0 0 \$0-s-2 \$0-r-2 to_x 58 7 0 10 -228856
-1 -1 138 256;
#X obj 244 276 nbx 5 14 22 138 0 0 \$0-s-3 \$0-r-3 from_x 58 7 0 10
-228856 -1 -1 22 256;
#X obj 244 293 nbx 5 14 -90 60 0 0 \$0-s-4 \$0-r-4 to_y 58 7 0 10 -228856
-1 -1 24 256;
#X obj 244 307 nbx 5 14 -90 59 0 0 \$0-s-5 \$0-r-5 from_y 58 7 0 10
-228856 -1 -1 -50 256;
#X obj 244 338 nbx 5 14 22 138 0 0 \$0-s-6 \$0-r-6 to_frequency 58
7 0 10 -228856 -1 -1 138 256;
#X obj 244 352 nbx 5 14 22 138 0 0 \$0-s-7 \$0-r-7 from_frequency 58
7 0 10 -228856 -1 -1 22 256;
#N canvas 42 201 659 464 process 0;
#X obj 106 27 inlet;
#N canvas 91 229 460 478 freq_osc 0;
#X obj 366 105 v \$0_v_size_x;
#X obj 303 100 v \$0_v_rng_x;
#X obj 359 170 v \$0_v_min_x;
#X obj 314 126 /;
#X obj 195 44 t b b b b b;
#X obj 212 309 *;
#X obj 209 339 +;
#X obj 201 367 mtof;
#X obj 192 15 inlet;
#X obj 171 92 v \$0_v_size_x;
#X obj 297 411 outlet n;
#X obj 190 412 outlet freq;
#X obj 141 239 -;
#X obj 135 218 - 1;
#X obj 247 188 t f f;
#X obj 200 160 t b f;
#X obj 130 192 v \$0_v_size_x;
#X obj 185 132 abs_itt;
#X connect 0 0 3 1;
#X connect 1 0 3 0;
#X connect 2 0 6 1;
#X connect 3 0 5 1;
#X connect 4 0 9 0;
#X connect 4 2 2 0;
#X connect 4 3 1 0;
#X connect 4 4 0 0;
#X connect 5 0 6 0;
#X connect 6 0 7 0;
#X connect 7 0 11 0;
#X connect 8 0 4 0;
#X connect 9 0 17 0;
#X connect 12 0 14 0;
#X connect 13 0 12 0;
#X connect 14 0 5 0;
#X connect 14 1 10 0;
#X connect 15 0 16 0;
#X connect 15 1 12 1;
#X connect 16 0 13 0;
#X connect 17 0 15 0;
#X restore 103 287 pd freq_osc;
#N canvas 691 45 589 576 freq 0;
#X obj 195 46 t b b b b b;
#X obj 244 399 *;
#X obj 242 423 +;
#X obj 225 473 mtof;
#X obj 192 15 inlet;
#X obj 171 92 v \$0_v_capability;
#X obj 315 123 - 1;
#X obj 289 95 v \$0_v_capability;
#X obj 220 377 /;
#X obj 232 452 clip 0 137;
#X obj 136 212 -;
#X obj 130 191 - 1;
#X obj 120 167 v \$0_v_capability;
#X obj 357 371 v \$0_v_rng_frequency;
#X obj 424 387 v \$0_v_min_frequency;
#X obj 272 314 t f f;
#X obj 166 139 t b f;
#X obj 88 281 tabread \$0_a_select_waves;
#X obj 87 303 sel 1;
#X obj 92 324 i;
#X obj 90 258 t f f;
#X obj 171 113 abs_itt;
#X obj 342 499 outlet number_wave;
#X obj 217 497 outlet frequency;
#X connect 0 0 5 0;
#X connect 0 1 7 0;
#X connect 0 2 13 0;
#X connect 0 3 14 0;
#X connect 1 0 2 0;
#X connect 2 0 9 0;
#X connect 3 0 23 0;
#X connect 4 0 0 0;
#X connect 5 0 21 0;
#X connect 6 0 8 1;
#X connect 7 0 6 0;
#X connect 8 0 1 0;
#X connect 9 0 3 0;
#X connect 10 0 20 0;
#X connect 11 0 10 0;
#X connect 12 0 11 0;
#X connect 13 0 1 1;
#X connect 14 0 2 1;
#X connect 15 0 8 0;
#X connect 15 1 22 0;
#X connect 16 0 12 0;
#X connect 16 1 10 1;
#X connect 17 0 18 0;
#X connect 18 0 19 0;
#X connect 19 0 15 0;
#X connect 20 0 17 0;
#X connect 20 1 19 1;
#X connect 21 0 16 0;
#X restore 145 205 pd freq;
#X obj 145 238 t b f;
#X obj 131 324 t b f;
#X obj 427 383 s \$0_r_lower_disp;
#N canvas 416 45 440 495 display 0;
#X obj 131 31 inlet;
#X obj 188 470 outlet;
#X obj 129 61 unpack f f f;
#X obj 229 136 *;
#X obj 308 118 v \$0_v_size_x;
#X obj 221 172 +;
#X obj 188 368 pack f f f f;
#X obj 108 87 rmstodb;
#X obj 98 231 -;
#X obj 96 305 *;
#X msg 157 236 1 \$1;
#X obj 157 255 /;
#X obj 122 280 *;
#X obj 329 238 v \$0_v_size_y;
#X obj 231 285 + 86;
#X obj 278 307 tabread \$0_a_rainbow;
#X obj 158 217 v \$0_v_rng_y;
#X obj 94 107 - 100;
#X obj 216 94 v \$0_v_max_y;
#X obj 81 189 pack;
#X msg 90 209 \$2 \$1;
#X obj 77 143 clip 22 137;
#X obj 226 111 v \$0_v_min_y;
#X obj 338 81 t b b;
#X text 217 394 \$1 - y0 \$2 - x0 \$3 - id \$4 - cl;
#X msg 188 452 9 \$3 \$2 \$1 \$2 \$1 \, 10 \$3 \$4;
#X obj 343 47 inlet test_init;
#X connect 0 0 2 0;
#X connect 2 0 7 0;
#X connect 2 1 5 0;
#X connect 2 1 6 1;
#X connect 2 2 3 0;
#X connect 2 2 15 0;
#X connect 3 0 5 1;
#X connect 4 0 3 1;
#X connect 5 0 14 0;
#X connect 6 0 25 0;
#X connect 7 0 17 0;
#X connect 8 0 9 0;
#X connect 9 0 6 0;
#X connect 10 0 11 0;
#X connect 11 0 12 0;
#X connect 12 0 9 1;
#X connect 13 0 12 1;
#X connect 14 0 6 2;
#X connect 15 0 6 3;
#X connect 16 0 10 0;
#X connect 17 0 21 0;
#X connect 18 0 19 1;
#X connect 18 0 21 2;
#X connect 19 0 20 0;
#X connect 20 0 8 0;
#X connect 21 0 19 0;
#X connect 22 0 21 1;
#X connect 23 0 4 0;
#X connect 23 0 16 0;
#X connect 23 0 18 0;
#X connect 23 0 22 0;
#X connect 23 1 13 0;
#X connect 25 0 1 0;
#X connect 26 0 23 0;
#X restore 431 353 pd display waves;
#X obj 62 148 print -n;
#X msg 62 130 DONE;
#X msg 513 100 \; pd dsp 1;
#X obj 96 64 t b b b b b b, f 74;
#N canvas 43 467 1209 288 init 0;
#N canvas 895 94 449 453 select 0;
#X obj 65 7 inlet;
#X obj 58 341 outlet;
#X obj 68 39 route 1 2;
#X obj 60 122 div 16;
#X obj 73 178 i;
#X obj 54 205 !=;
#X obj 58 148 t f b f;
#X obj 60 258 i;
#X obj 57 234 sel 1;
#X msg 128 148 -9999;
#X obj 121 353 tabwrite \$0_a_select_waves;
#X obj 146 282 t b b f;
#X obj 245 232 == 0;
#X obj 157 309 i;
#X obj 286 107 v \$0_v_capability;
#X obj 57 95 unpack f f f f;
#X obj 271 132 /;
#X obj 209 111 v \$0_v_size_x;
#X obj 111 65 t a b b b;
#X connect 0 0 2 0;
#X connect 2 0 18 0;
#X connect 2 1 15 0;
#X connect 3 0 6 0;
#X connect 4 0 5 1;
#X connect 5 0 8 0;
#X connect 6 0 4 1;
#X connect 6 0 5 0;
#X connect 6 1 4 0;
#X connect 6 2 7 1;
#X connect 7 0 11 0;
#X connect 8 0 7 0;
#X connect 9 0 4 1;
#X connect 11 0 1 0;
#X connect 11 1 13 0;
#X connect 11 2 10 1;
#X connect 12 0 13 1;
#X connect 13 0 10 0;
#X connect 14 0 16 1;
#X connect 15 0 3 0;
#X connect 15 2 12 0;
#X connect 16 0 3 1;
#X connect 17 0 16 0;
#X connect 18 0 15 0;
#X connect 18 1 9 0;
#X connect 18 2 17 0;
#X connect 18 3 14 0;
#X restore 713 71 pd select;
#N canvas 343 214 381 333 make 0;
#X obj 52 31 inlet;
#X obj 52 49 v \$0_v_capability;
#X obj 52 67 change;
#X obj 52 89 t f f f, f 22;
#X obj 52 149 /, f 10;
#X obj 52 112 abs_itt;
#X obj 52 185 abs_rgb2pd;
#X obj 52 167 abs_rgbmix_sin;
#X obj 52 130 t f f, f 18;
#X obj 52 203 tabwrite \$0_a_rainbow;
#X obj 181 120 pack f \$0;
#X msg 181 156 \; \$2_a_rainbow resize \$1;
#X connect 0 0 1 0;
#X connect 1 0 2 0;
#X connect 2 0 3 0;
#X connect 3 0 5 0;
#X connect 3 1 4 1;
#X connect 3 2 10 0;
#X connect 4 0 7 0;
#X connect 5 0 8 0;
#X connect 6 0 9 0;
#X connect 7 0 6 0;
#X connect 8 0 4 0;
#X connect 8 1 9 1;
#X connect 10 0 11 0;
#X restore 1052 191 pd make rainbow;
#X obj 939 166 bng 15 250 50 0 empty empty empty 17 7 0 10 -262144
-1 -1;
#X obj 826 166 bng 15 250 50 0 empty empty empty 17 7 0 10 -262144
-1 -1;
#X obj 1052 166 bng 15 250 50 0 empty empty empty 17 7 0 10 -262144
-1 -1;
#X obj 713 53 r \$0_s_upper_disp;
#X obj 713 209 s \$0_r_upper_disp;
#X obj 826 209 s \$0_r_upper_disp;
#X obj 600 166 bng 15 250 50 0 empty empty empty 17 7 0 10 -262144
-1 -1;
#N canvas 150 267 1153 489 init_lower 0;
#X obj 283 23 inlet;
#X obj 296 437 outlet;
#X obj 874 256 + 4;
#X text 921 255 back \, vicinity \, square;
#X text 916 283 grid y;
#X text 914 307 grid x;
#X msg 329 166 10;
#X obj 37 174 t b f;
#X obj 27 285 +;
#X msg 24 329 1 \$1 11 1 0 0 0 0;
#X obj 589 238 + 4;
#X obj 979 206 v \$0_v_size_x;
#X obj 870 223 *;
#X msg 875 350 maxel \$1;
#X obj 1051 204 v \$0_v_size_y;
#X obj 1065 237 pack f f;
#X obj 264 54 t b b b b b b b b b b;
#X msg 1012 358 size \$1 \$2;
#X obj 688 198 v \$0_v_size_x;
#X obj 757 197 v \$0_v_size_y;
#X obj 705 220 pack f f;
#X msg 716 264 3 0 22 22 1 0 0 \$1 \$2;
#X obj 68 219 v \$0_v_size_x;
#X obj 15 196 v \$0_v_size_x;
#X obj 72 251 *;
#X obj 868 199 v \$0_v_capability;
#X obj 42 124 v \$0_v_capability;
#X obj 874 306 + 30;
#X msg 260 190 10;
#X msg 202 220 10;
#X msg 458 269 8 \$1 22 10 0 0;
#X obj 874 280 + 52;
#X msg 587 192 26;
#X msg 463 191 26;
#X obj 465 237 + 30;
#X obj 331 244 + 56;
#X obj 262 268 + 66;
#X obj 204 298 + 76;
#X obj 27 305 + 86;
#X msg 255 298 8 \$1 22 10 0 0;
#X msg 197 329 8 \$1 22 10 0 0;
#X msg 582 269 1 \$1 21 1 0 0 0 0;
#X msg 324 275 1 \$1 21 1 0 0 0 0;
#X obj 19 252 abs_itt;
#X obj 42 148 abs_itt;
#X obj 186 251 abs_itt;
#X obj 260 221 abs_itt;
#X obj 329 197 abs_itt;
#X obj 467 215 abs_itt;
#X obj 591 216 abs_itt;
#X connect 0 0 16 0;
#X connect 2 0 31 0;
#X connect 6 0 47 0;
#X connect 7 0 23 0;
#X connect 7 1 24 0;
#X connect 8 0 38 0;
#X connect 9 0 1 0;
#X connect 10 0 41 0;
#X connect 11 0 12 1;
#X connect 11 0 15 0;
#X connect 12 0 2 0;
#X connect 13 0 1 0;
#X connect 14 0 15 1;
#X connect 15 0 17 0;
#X connect 16 0 26 0;
#X connect 16 1 29 0;
#X connect 16 2 28 0;
#X connect 16 3 6 0;
#X connect 16 4 33 0;
#X connect 16 5 32 0;
#X connect 16 6 18 0;
#X connect 16 7 25 0;
#X connect 16 8 11 0;
#X connect 16 9 14 0;
#X connect 16 9 19 0;
#X connect 16 9 22 0;
#X connect 17 0 1 0;
#X connect 18 0 20 0;
#X connect 19 0 20 1;
#X connect 20 0 21 0;
#X connect 21 0 1 0;
#X connect 22 0 24 1;
#X connect 23 0 43 0;
#X connect 24 0 8 1;
#X connect 25 0 12 0;
#X connect 26 0 44 0;
#X connect 27 0 13 0;
#X connect 28 0 46 0;
#X connect 29 0 45 0;
#X connect 30 0 1 0;
#X connect 31 0 27 0;
#X connect 32 0 49 0;
#X connect 33 0 48 0;
#X connect 34 0 30 0;
#X connect 35 0 42 0;
#X connect 36 0 39 0;
#X connect 37 0 40 0;
#X connect 38 0 9 0;
#X connect 39 0 1 0;
#X connect 40 0 1 0;
#X connect 41 0 1 0;
#X connect 42 0 1 0;
#X connect 43 0 8 0;
#X connect 44 0 7 0;
#X connect 45 0 37 0;
#X connect 46 0 36 0;
#X connect 47 0 35 0;
#X connect 48 0 34 0;
#X connect 49 0 10 0;
#X restore 600 191 pd init_lower;
#X obj 600 209 s \$0_r_lower_disp;
#X obj 148 166 bng 15 250 50 0 empty empty empty 17 7 0 10 -262144
-1 -1;
#N canvas 12 132 588 600 grid 0;
#X obj 128 21 inlet;
#X obj 56 77 v \$0_v_to_y;
#X obj 220 66 v \$0_v_from_y;
#X obj 40 105 expr if ($f1 > $f2 \, $f1 \, $f2) \; if ($f1 > $f2 \,
$f2 \, $f1);
#X obj 141 147 -;
#X obj 140 168 max 1;
#X obj 127 309 % 6;
#X obj 120 332 sel 0;
#X obj 152 391 i;
#X obj 148 265 +;
#X obj 209 359 i;
#X obj 241 354 + 1;
#X msg 227 319 0;
#X obj 128 42 t b b;
#X obj 132 285 t f f;
#X obj 125 358 t b b;
#X obj 267 417 v \$0_v_size_y;
#X obj 138 191 t f b f;
#X obj 272 441 /;
#X obj 158 478 *;
#X obj 163 456 -;
#X obj 64 456 v \$0_v_size_y;
#X obj 163 422 t b f f;
#X obj 144 502 -;
#X obj 376 565 outlet;
#X obj 353 471 v \$0_v_size_x;
#X obj 229 475 + 4;
#X msg 346 538 9 \$3 0 \$1 \$5 \$1;
#X msg 453 540 9 \$4 \$5 \$1;
#X obj 126 223 + 1;
#X obj 255 484 + 30;
#X obj 191 505 pack f s f f f;
#X msg 364 511 13 \$4 \$2;
#X obj 253 154 v \$0_v_min_y;
#X obj 260 182 v \$0_v_rng_y;
#X obj 55 165 v \$0_v_max_y;
#X obj 128 243 abs_itt;
#X obj 359 390 makefilename [%3ddB];
#X connect 0 0 13 0;
#X connect 1 0 3 0;
#X connect 2 0 3 1;
#X connect 3 0 4 0;
#X connect 3 0 35 0;
#X connect 3 1 4 1;
#X connect 3 1 9 1;
#X connect 3 1 20 1;
#X connect 3 1 33 0;
#X connect 4 0 5 0;
#X connect 5 0 17 0;
#X connect 5 0 34 0;
#X connect 6 0 7 0;
#X connect 7 0 15 0;
#X connect 8 0 22 0;
#X connect 9 0 14 0;
#X connect 10 0 11 0;
#X connect 10 0 26 0;
#X connect 10 0 30 0;
#X connect 11 0 10 1;
#X connect 12 0 10 1;
#X connect 13 0 1 0;
#X connect 13 1 2 0;
#X connect 13 1 12 0;
#X connect 13 1 25 0;
#X connect 14 0 6 0;
#X connect 14 1 8 1;
#X connect 15 0 8 0;
#X connect 15 1 10 0;
#X connect 16 0 18 0;
#X connect 17 0 29 0;
#X connect 17 1 16 0;
#X connect 17 2 18 1;
#X connect 18 0 19 1;
#X connect 19 0 23 1;
#X connect 20 0 19 0;
#X connect 21 0 23 0;
#X connect 22 0 21 0;
#X connect 22 1 20 0;
#X connect 22 2 37 0;
#X connect 23 0 31 0;
#X connect 25 0 31 4;
#X connect 26 0 31 2;
#X connect 27 0 24 0;
#X connect 28 0 24 0;
#X connect 29 0 36 0;
#X connect 30 0 31 3;
#X connect 31 0 27 0;
#X connect 31 0 32 0;
#X connect 31 0 28 0;
#X connect 32 0 24 0;
#X connect 36 0 9 0;
#X connect 37 0 31 1;
#X restore 148 191 pd grid y;
#N canvas 235 121 553 474 init_upper 0;
#X obj 240 441 outlet;
#X obj 22 230 t f f f;
#X obj 17 337 pack f f s;
#X obj 90 277 makefilename %2d;
#X obj 56 306 + 2;
#X obj 291 267 tabread \$0_a_rainbow;
#X obj 212 220 t f f f;
#X obj 212 317 pack f f f f;
#X msg 212 338 3 \$1 22 \$4 1 \$2 0 \$3 16;
#X msg 17 362 8 \$1 0 10 \$2 8 \$3;
#X obj 182 40 inlet;
#X obj 182 58 v \$0_v_capability;
#X obj 417 214 * 2;
#X obj 17 276 +;
#X obj 283 179 /;
#X obj 283 155 v \$0_v_size_x;
#X obj 182 76 t f f f b f, f 21;
#X obj 239 251 *;
#X obj 252 277 +;
#X obj 55 276 *;
#X obj 465 294 v \$0_v_size_x;
#X msg 419 345 maxel \$1;
#X msg 459 395 size \$1 16;
#X obj 23 202 abs_itt;
#X obj 212 193 abs_itt;
#X connect 1 0 13 0;
#X connect 1 1 19 0;
#X connect 1 2 3 0;
#X connect 2 0 9 0;
#X connect 3 0 2 2;
#X connect 4 0 2 1;
#X connect 5 0 7 3;
#X connect 6 0 7 0;
#X connect 6 1 17 0;
#X connect 6 2 5 0;
#X connect 7 0 8 0;
#X connect 8 0 0 0;
#X connect 9 0 0 0;
#X connect 10 0 11 0;
#X connect 11 0 16 0;
#X connect 12 0 21 0;
#X connect 13 0 2 0;
#X connect 14 0 17 1;
#X connect 14 0 18 1;
#X connect 14 0 19 1;
#X connect 15 0 14 0;
#X connect 16 0 23 0;
#X connect 16 1 24 0;
#X connect 16 2 12 0;
#X connect 16 3 15 0;
#X connect 16 3 20 0;
#X connect 16 4 14 1;
#X connect 16 4 13 1;
#X connect 17 0 7 1;
#X connect 17 0 18 0;
#X connect 18 0 7 2;
#X connect 19 0 4 0;
#X connect 20 0 22 0;
#X connect 21 0 0 0;
#X connect 22 0 0 0;
#X connect 23 0 1 0;
#X connect 24 0 6 0;
#X restore 826 191 pd init_upper;
#X obj 148 209 s \$0_r_lower_disp;
#X obj 261 166 bng 15 250 50 0 empty empty empty 17 7 0 10 -262144
-1 -1;
#X obj 260 209 s \$0_r_lower_disp;
#N canvas 133 45 608 703 grid 0;
#X obj 128 21 inlet;
#X obj 53 103 expr if ($f1 > $f2 \, $f1 \, $f2) \; if ($f1 > $f2 \,
$f2 \, $f1);
#X obj 141 147 -;
#X obj 140 168 max 1;
#X obj 120 332 sel 0;
#X obj 152 391 i;
#X obj 148 265 +;
#X obj 209 359 i;
#X obj 241 354 + 1;
#X msg 227 319 0;
#X obj 128 42 t b b;
#X obj 132 285 t f f;
#X obj 125 358 t b b;
#X obj 138 191 t f b f;
#X obj 36 408 /;
#X obj 158 478 *;
#X obj 163 456 -;
#X obj 261 667 outlet;
#X obj 126 223 + 1;
#X obj 221 66 v \$0_v_from_x;
#X obj 56 77 v \$0_v_to_x;
#X obj 127 309 % 12;
#X obj 163 422 t b f f f;
#X obj 373 321 mtof;
#X obj 295 484 + 56;
#X obj 326 483 + 66;
#X obj 363 483 + 76;
#X obj 31 384 v \$0_v_size_x;
#X obj 417 483 v \$0_v_size_y;
#X msg 62 626 9 \$4 \$1 0 \$1 \$7;
#X msg 253 629 13 \$5 \$2;
#X msg 169 628 9 \$5 \$1 \$8;
#X obj 417 503 + 6;
#X obj 190 529 pack f s s f f f f f f;
#X msg 317 630 9 \$6 \$1 \$9;
#X msg 401 632 13 \$6 \$3;
#X obj 454 538 + 18;
#X obj 256 138 v \$0_v_min_x;
#X obj 260 182 v \$0_v_rng_x;
#X obj 128 243 abs_itt;
#X obj 327 294 makefilename [%dM];
#X obj 372 342 makefilename [%dHz];
#X connect 0 0 10 0;
#X connect 1 0 2 0;
#X connect 1 1 2 1;
#X connect 1 1 6 1;
#X connect 1 1 16 1;
#X connect 1 1 37 0;
#X connect 2 0 3 0;
#X connect 3 0 13 0;
#X connect 4 0 12 0;
#X connect 5 0 22 0;
#X connect 6 0 11 0;
#X connect 7 0 8 0;
#X connect 7 0 24 0;
#X connect 7 0 25 0;
#X connect 7 0 26 0;
#X connect 8 0 7 1;
#X connect 9 0 7 1;
#X connect 10 0 20 0;
#X connect 10 1 9 0;
#X connect 10 1 19 0;
#X connect 10 1 28 0;
#X connect 11 0 21 0;
#X connect 11 1 5 1;
#X connect 12 0 5 0;
#X connect 12 1 7 0;
#X connect 13 0 18 0;
#X connect 13 1 27 0;
#X connect 13 2 14 1;
#X connect 13 2 38 0;
#X connect 14 0 15 1;
#X connect 15 0 33 0;
#X connect 16 0 15 0;
#X connect 18 0 39 0;
#X connect 19 0 1 1;
#X connect 20 0 1 0;
#X connect 21 0 4 0;
#X connect 22 1 16 0;
#X connect 22 2 40 0;
#X connect 22 3 23 0;
#X connect 23 0 41 0;
#X connect 24 0 33 3;
#X connect 25 0 33 4;
#X connect 26 0 33 5;
#X connect 27 0 14 0;
#X connect 28 0 32 0;
#X connect 28 0 33 6;
#X connect 28 0 36 0;
#X connect 29 0 17 0;
#X connect 30 0 17 0;
#X connect 31 0 17 0;
#X connect 32 0 33 7;
#X connect 33 0 29 0;
#X connect 33 0 31 0;
#X connect 33 0 30 0;
#X connect 33 0 34 0;
#X connect 33 0 35 0;
#X connect 34 0 17 0;
#X connect 35 0 17 0;
#X connect 36 0 33 8;
#X connect 39 0 6 0;
#X connect 40 0 33 1;
#X connect 41 0 33 2;
#X restore 261 191 pd grid x;
#X obj 374 166 bng 15 250 50 0 empty empty empty 17 7 0 10 -262144
-1 -1;
#X obj 374 209 s \$0_r_lower_disp;
#N canvas 291 122 331 410 clear 0;
#X obj 128 21 inlet;
#X obj 145 247 outlet;
#X obj 219 128 + 4;
#X msg 88 159 8 \$1 22 10 0 0;
#X msg 217 82 26;
#X msg 93 81 26;
#X obj 95 127 + 30;
#X obj 144 40 t b b;
#X msg 212 158 9 \$1 0 0 0 0;
#X obj 97 105 abs_itt;
#X obj 221 106 abs_itt;
#X connect 0 0 7 0;
#X connect 2 0 8 0;
#X connect 3 0 1 0;
#X connect 4 0 10 0;
#X connect 5 0 9 0;
#X connect 6 0 3 0;
#X connect 7 0 5 0;
#X connect 7 1 4 0;
#X connect 8 0 1 0;
#X connect 9 0 6 0;
#X connect 10 0 2 0;
#X restore 374 191 pd clear grid y;
#X obj 487 166 bng 15 250 50 0 empty empty empty 17 7 0 10 -262144
-1 -1;
#X obj 487 209 s \$0_r_lower_disp;
#N canvas 127 166 331 410 clear 0;
#X obj 128 21 inlet;
#X obj 145 262 outlet;
#X obj 115 48 t b b b;
#X msg 205 60 10;
#X msg 136 84 10;
#X msg 78 114 10;
#X obj 207 138 + 56;
#X obj 138 162 + 66;
#X obj 80 192 + 76;
#X msg 200 168 9 \$1 0 0 0 0;
#X msg 131 192 9 \$1 0 0 0 0;
#X msg 73 223 9 \$1 0 0 0 0;
#X obj 76 145 abs_itt;
#X obj 136 115 abs_itt;
#X obj 205 91 abs_itt;
#X connect 0 0 2 0;
#X connect 2 0 5 0;
#X connect 2 1 4 0;
#X connect 2 2 3 0;
#X connect 3 0 14 0;
#X connect 4 0 13 0;
#X connect 5 0 12 0;
#X connect 6 0 9 0;
#X connect 7 0 10 0;
#X connect 8 0 11 0;
#X connect 9 0 1 0;
#X connect 10 0 1 0;
#X connect 11 0 1 0;
#X connect 12 0 8 0;
#X connect 13 0 7 0;
#X connect 14 0 6 0;
#X restore 487 191 pd clear grid x;
#X obj 35 166 bng 15 250 50 0 empty empty empty 17 7 0 10 -262144 -1
-1;
#X obj 35 48 inlet;
#X obj 35 140 t b b b b b b b b b b, f 170;
#X obj 713 166 bng 15 250 50 0 empty empty empty 17 7 0 10 -262144
-1 -1;
#N canvas 170 297 494 357 init 0;
#X obj 155 216 t b f, f 23;
#X obj 155 253 tabwrite \$0_a_select_waves;
#X obj 155 64 t f f;
#X obj 155 9 inlet;
#X msg 155 235 1;
#X obj 155 27 v \$0_v_capability;
#X obj 155 45 change;
#X obj 155 193 abs_itt;
#X obj 182 95 pack f \$0;
#X msg 182 123 \; \$2_a_select_waves resize \$1;
#X connect 0 0 4 0;
#X connect 0 1 1 1;
#X connect 2 0 7 0;
#X connect 2 1 8 0;
#X connect 3 0 5 0;
#X connect 4 0 1 0;
#X connect 5 0 6 0;
#X connect 6 0 2 0;
#X connect 7 0 0 0;
#X connect 8 0 9 0;
#X restore 939 191 pd init sel.waves;
#N canvas 757 45 553 474 disp 0;
#X obj 197 10 inlet;
#X obj 140 443 outlet;
#X obj 245 197 t f f f;
#X obj 271 246 tabread \$0_a_select_waves;
#X obj 335 282 tabread \$0_a_rainbow;
#X msg 240 373 10 \$1 22 \$2;
#X obj 239 346 pack f f;
#X obj 300 312 i;
#X obj 270 273 sel 0 1;
#X obj 52 206 t f f f;
#X obj 91 261 tabread \$0_a_select_waves;
#X obj 46 355 pack f f;
#X obj 90 288 sel 0 1;
#X obj 25 318 + 32;
#X msg 47 382 10 \$1 \$2;
#X msg 122 326 0;
#X msg 263 308 10;
#X obj 198 33 v \$0_v_capability;
#X obj 197 58 t f f f;
#X msg 83 322 22;
#X obj 52 179 abs_itt;
#X obj 245 170 abs_itt;
#X connect 0 0 17 0;
#X connect 2 0 6 0;
#X connect 2 1 3 0;
#X connect 2 2 4 0;
#X connect 3 0 8 0;
#X connect 4 0 7 1;
#X connect 5 0 1 0;
#X connect 6 0 5 0;
#X connect 7 0 6 1;
#X connect 8 0 16 0;
#X connect 8 1 7 0;
#X connect 9 0 13 0;
#X connect 9 1 10 0;
#X connect 10 0 12 0;
#X connect 11 0 14 0;
#X connect 12 0 19 0;
#X connect 12 1 15 0;
#X connect 13 0 11 0;
#X connect 14 0 1 0;
#X connect 15 0 11 1;
#X connect 16 0 6 1;
#X connect 17 0 18 0;
#X connect 18 0 20 0;
#X connect 18 1 21 0;
#X connect 18 2 13 1;
#X connect 19 0 11 1;
#X connect 20 0 9 0;
#X connect 21 0 2 0;
#X restore 713 191 pd disp sel.waves;
#N canvas 133 45 439 301 calc 0;
#X obj 128 21 inlet;
#X obj 53 103 expr if ($f1 > $f2 \, $f1 \, $f2) \; if ($f1 > $f2 \,
$f2 \, $f1);
#X obj 141 147 -;
#X obj 140 168 max 1;
#X obj 128 42 t b b;
#X obj 136 200 v \$0_v_rng_frequency;
#X obj 256 138 v \$0_v_min_frequency;
#X obj 221 66 v \$0_v_from_frequency;
#X obj 56 75 v \$0_v_to_frequency;
#X connect 0 0 4 0;
#X connect 1 0 2 0;
#X connect 1 1 2 1;
#X connect 1 1 6 0;
#X connect 2 0 3 0;
#X connect 3 0 5 0;
#X connect 4 0 8 0;
#X connect 4 1 7 0;
#X connect 7 0 1 1;
#X connect 8 0 1 0;
#X restore 35 191 pd calc freq;
#X connect 0 0 27 0;
#X connect 2 0 28 0;
#X connect 3 0 13 0;
#X connect 4 0 1 0;
#X connect 5 0 0 0;
#X connect 8 0 9 0;
#X connect 9 0 10 0;
#X connect 11 0 12 0;
#X connect 12 0 14 0;
#X connect 13 0 7 0;
#X connect 15 0 17 0;
#X connect 17 0 16 0;
#X connect 18 0 20 0;
#X connect 20 0 19 0;
#X connect 21 0 23 0;
#X connect 23 0 22 0;
#X connect 24 0 30 0;
#X connect 25 0 26 0;
#X connect 26 0 24 0;
#X connect 26 1 11 0;
#X connect 26 2 15 0;
#X connect 26 3 18 0;
#X connect 26 4 21 0;
#X connect 26 5 8 0;
#X connect 26 6 27 0;
#X connect 26 7 3 0;
#X connect 26 8 2 0;
#X connect 26 9 4 0;
#X connect 27 0 29 0;
#X connect 29 0 6 0;
#X restore 446 148 pd init;
#X obj 372 300 inlet manipulation;
#X obj 236 329 outlet number_wave;
#X obj 224 353 outlet test_frequency;
#X obj 190 379 outlet pos_x;
#X obj 148 401 outlet freq_osc;
#X obj 123 422 outlet doit;
#X obj 273 273 outlet test_init;
#X obj 279 192 v \$0_v_quality;
#X connect 0 0 10 0;
#X connect 1 0 4 0;
#X connect 1 1 15 0;
#X connect 2 0 3 0;
#X connect 2 1 13 0;
#X connect 3 0 1 0;
#X connect 3 1 14 0;
#X connect 4 0 17 0;
#X connect 4 1 16 0;
#X connect 6 0 5 0;
#X connect 8 0 7 0;
#X connect 10 0 8 0;
#X connect 10 1 2 0;
#X connect 10 2 19 0;
#X connect 10 3 6 1;
#X connect 10 4 11 0;
#X connect 10 5 9 0;
#X connect 12 0 6 0;
#X connect 19 0 18 0;
#X restore 26 138 pd process;
#X obj 461 45 loadbang;
#X msg 461 63 512;
#X obj 558 45 loadbang;
#X msg 558 63 256;
#X obj 250 27 table \$0_a_select_waves;
#X obj 259 53 table \$0_a_rainbow;
#N canvas 249 101 488 510 state 0;
#X obj 68 59 savestate;
#X obj 119 233 f;
#X obj 134 39 r \$0-s-0;
#X obj 68 313 s \$0-r-0;
#X obj 151 57 r \$0-s-1;
#X obj 102 331 s \$0-r-1;
#X obj 137 349 s \$0-r-2;
#X obj 172 367 s \$0-r-3;
#X obj 207 385 s \$0-r-4;
#X obj 242 403 s \$0-r-5;
#X obj 277 421 s \$0-r-6;
#X obj 312 439 s \$0-r-7;
#X obj 184 75 r \$0-s-2;
#X obj 217 93 r \$0-s-3;
#X obj 249 111 r \$0-s-4;
#X obj 282 129 r \$0-s-5;
#X obj 315 147 r \$0-s-6;
#X obj 347 165 r \$0-s-7;
#X obj 119 254 pack f f f f f f f f, f 36;
#X obj 68 273 unpack f f f f f f f f, f 44;
#X connect 0 0 19 0;
#X connect 0 1 1 0;
#X connect 1 0 18 0;
#X connect 2 0 1 1;
#X connect 4 0 18 1;
#X connect 12 0 18 2;
#X connect 13 0 18 3;
#X connect 14 0 18 4;
#X connect 15 0 18 5;
#X connect 16 0 18 6;
#X connect 17 0 18 7;
#X connect 18 0 0 0;
#X connect 19 0 3 0;
#X connect 19 1 5 0;
#X connect 19 2 6 0;
#X connect 19 3 7 0;
#X connect 19 4 8 0;
#X connect 19 5 9 0;
#X connect 19 6 10 0;
#X connect 19 7 11 0;
#X restore 464 145 pd state;
#X obj 56 52 inlet manipulation;
#X obj 94 454 outlet number_wave;
#X obj 74 473 outlet test_frequency;
#X obj 57 493 outlet pos_x;
#X obj 39 514 outlet freq_osc;
#X obj 23 534 outlet doit;
#X obj 112 434 outlet test_init;
#X connect 0 0 31 0;
#X connect 4 0 10 0;
#X connect 10 0 1 0;
#X connect 15 0 16 0;
#X connect 16 0 20 0;
#X connect 25 0 3 0;
#X connect 26 0 12 0;
#X connect 27 0 2 0;
#X connect 28 0 11 0;
#X connect 29 0 23 0;
#X connect 30 0 24 0;
#X connect 31 0 44 0;
#X connect 31 1 43 0;
#X connect 31 2 42 0;
#X connect 31 3 41 0;
#X connect 31 4 40 0;
#X connect 31 5 45 0;
#X connect 32 0 33 0;
#X connect 33 0 13 0;
#X connect 34 0 35 0;
#X connect 35 0 14 0;
#X connect 39 0 31 1;
#X coords 0 -1 1 1 150 272 2 240 100;
#X restore 40 40 pd this;
#X obj 190 56 n_canvas 512 256 \\\$0_s_lower_disp \\\$0_r_lower_disp
empty 10 10 11 16579800 65793 65793 8278;
#X obj 190 40 n_canvas 512 16 1003_s_upper_disp 1003_r_upper_disp empty
10 10 11 16579800 65793 65793 32;
#X text 174 313 M:;
#X text 168 322 Hz:;
#X obj 154 412 outlet number_wave;
#X obj 125 435 outlet test_frequency;
#X obj 97 455 outlet pos_x;
#X obj 68 477 outlet freq_osc;
#X obj 40 499 outlet doit;
#X obj 183 385 outlet test_init;
#X obj 40 14 inlet manipulation;
#X connect 0 0 9 0;
#X connect 0 1 8 0;
#X connect 0 2 7 0;
#X connect 0 3 6 0;
#X connect 0 4 5 0;
#X connect 0 5 10 0;
#X connect 11 0 0 0;
#X coords 0 -1 1 1 712 298 2 40 40;
