#N canvas 198 99 895 550 10;
#X obj 104 38 polyscope;
#A saved 2 0 138 22 24 -50 138 22;
#N canvas 50 127 800 559 manipulations 0;
#X obj 82 101 osc~;
#X msg 103 82 0;
#X msg 69 510 set \$1 1 1;
#X obj 58 528 switch~ 64 1 1;
#X obj 163 456 snapshot~;
#X obj 163 427 fexpr~ if ($x1 > $y1 \, $x1 \, $y1);
#X obj 39 390 t b b b;
#X obj 163 510 pack f f f;
#X obj 163 381 abs~;
#X msg 172 403 clear y1 \, set 0;
#X text 516 297 various filters(somethig) this...;
#X obj 398 255 lop~;
#N canvas 589 292 661 372 filter_2p 0;
#X obj 214 168 -~;
#X obj 215 196 *~ 0;
#X obj 215 222 +~;
#X obj 587 84 -;
#X msg 587 62 1 \$1;
#X obj 577 114 * 2;
#X obj 36 150 +~;
#X obj 50 123 *~ 0;
#X obj 215 260 *~ 0;
#X obj 216 292 +~;
#X obj 213 73 inlet~;
#X obj 377 54 inlet freq;
#X obj 587 14 inlet res;
#X obj 217 320 outlet~ lp;
#X obj 295 321 outlet~ bp;
#X obj 370 322 outlet~ hp;
#X obj 440 322 block~ 1 1 1;
#X obj 587 40 max 0.1;
#X obj 51 76 delread~ \$0filter_2p_1;
#X obj 367 256 delwrite~ \$0filter_2p_1;
#X obj 37 275 delread~ \$0filter_2p_2;
#X obj 36 310 delwrite~ \$0filter_2p_2;
#X obj 381 167 *;
#X obj 440 100 samplerate~;
#X msg 440 127 6.28319 \$1;
#X obj 440 152 /;
#X text 607 113 d;
#X floatatom 520 18 5 0 100 0 - - -;
#X obj 583 139 * 0.5;
#X obj 515 46 * 0.01;
#X obj 592 165 + 0.5;
#X obj 386 75 t f b;
#X obj 381 188 clip 0 0.8;
#X connect 0 0 1 0;
#X connect 0 0 15 0;
#X connect 1 0 2 0;
#X connect 2 0 8 0;
#X connect 2 0 14 0;
#X connect 2 0 19 0;
#X connect 3 0 5 0;
#X connect 3 0 28 0;
#X connect 4 0 3 0;
#X connect 5 0 7 1;
#X connect 6 0 0 1;
#X connect 7 0 6 1;
#X connect 8 0 9 0;
#X connect 9 0 13 0;
#X connect 9 0 21 0;
#X connect 10 0 0 0;
#X connect 11 0 31 0;
#X connect 12 0 17 0;
#X connect 17 0 4 0;
#X connect 18 0 2 1;
#X connect 18 0 7 0;
#X connect 20 0 9 1;
#X connect 20 0 6 0;
#X connect 22 0 32 0;
#X connect 23 0 24 0;
#X connect 24 0 25 0;
#X connect 25 0 22 1;
#X connect 27 0 29 0;
#X connect 28 0 30 0;
#X connect 29 0 4 0;
#X connect 31 0 22 0;
#X connect 31 1 23 0;
#X connect 32 0 1 1;
#X connect 32 0 8 1;
#X restore 462 246 pd filter_2p;
#X floatatom 558 219 5 0 0 0 - - -;
#X obj 558 172 loadbang;
#X msg 558 193 0.2;
#X obj 11 35 inlet doit;
#X obj 82 35 inlet freq_osc;
#X obj 180 34 inlet pos_x;
#X obj 256 34 inlet test_frequency;
#X obj 386 34 inlet number_wave;
#X obj 499 34 inlet test_init;
#X obj 163 528 outlet manipulation;
#X connect 0 0 11 0;
#X connect 0 0 12 0;
#X connect 1 0 0 1;
#X connect 2 0 3 0;
#X connect 4 0 7 0;
#X connect 5 0 4 0;
#X connect 6 0 4 0;
#X connect 6 1 3 0;
#X connect 6 2 9 0;
#X connect 7 0 22 0;
#X connect 8 0 5 0;
#X connect 9 0 5 0;
#X connect 12 0 8 0;
#X connect 13 0 12 2;
#X connect 14 0 15 0;
#X connect 15 0 13 0;
#X connect 16 0 6 0;
#X connect 17 0 0 0;
#X connect 18 0 7 1;
#X connect 19 0 12 1;
#X connect 19 0 11 1;
#X connect 20 0 7 2;
#X connect 21 0 1 0;
#X connect 21 0 2 0;
#X restore 104 341 pd manipulations;
#X f 118;
#X text 109 430 TODO:;
#X text 95 453 Documentation;
#X text 117 475 Display waves;
#X text 143 494 Save state;
#X text 155 510 Add xy;
#X text 390 429 polyscope - multisignal source analysis tool.;
#X text 401 463 Polyscope.Mike Daliot Native-Instruments Dec.2008,
f 22;
#X text 324 12 Mouse1 - enable wave \, Shift-Mouse1 - disble wave.
;
#X obj 104 360 s \$0-m;
#X obj 104 17 r \$0-m;
#X connect 0 0 1 0;
#X connect 0 1 1 1;
#X connect 0 2 1 2;
#X connect 0 3 1 3;
#X connect 0 4 1 4;
#X connect 0 5 1 5;
#X connect 1 0 10 0;
#X connect 11 0 0 0;
